<svg xmlns="http://www.w3.org/2000/svg" width="341.97" height="77" viewBox="0 0 341.97 77">
  <g id="logo-white" transform="translate(-79.774 -190.969)">
    <g id="Group_1719" data-name="Group 1719">
      <path id="Path_632" data-name="Path 632" d="M226.53,205.138h4.911v8.834H240.5v-8.834h4.911v22.323H240.5V218.5h-9.058v8.961H226.53Z" fill="#fff"/>
      <path id="Path_633" data-name="Path 633" d="M248.5,216.363V216.3a11.869,11.869,0,0,1,23.727-.064v.064a11.869,11.869,0,0,1-23.727.063Zm18.592,0V216.3a6.782,6.782,0,0,0-6.761-7.016,6.676,6.676,0,0,0-6.7,6.952v.064a6.782,6.782,0,0,0,6.762,7.015A6.675,6.675,0,0,0,267.091,216.363Z" fill="#fff"/>
      <path id="Path_634" data-name="Path 634" d="M275.313,205.138h5.294l5.869,9.44,5.868-9.44h5.293v22.323h-4.879V212.887l-6.282,9.536h-.128l-6.219-9.44v14.478h-4.816Z" fill="#fff"/>
      <path id="Path_635" data-name="Path 635" d="M301.714,205.138h16.839v4.369H306.594v4.528h10.523V218.4H306.594v4.688h12.118v4.369h-17Z" fill="#fff"/>
      <path id="Path_636" data-name="Path 636" d="M327,209.667h-6.793v-4.529h18.5v4.529H331.91v17.794H327Z" fill="#fff"/>
      <path id="Path_637" data-name="Path 637" d="M339.242,216.363V216.3a11.869,11.869,0,0,1,23.727-.064v.064a11.869,11.869,0,0,1-23.727.063Zm18.592,0V216.3a6.782,6.782,0,0,0-6.761-7.016,6.676,6.676,0,0,0-6.7,6.952v.064a6.783,6.783,0,0,0,6.762,7.015A6.675,6.675,0,0,0,357.834,216.363Z" fill="#fff"/>
      <path id="Path_638" data-name="Path 638" d="M363.06,205.138h5.261l4.624,15.116,5.007-15.18h4.21l5.007,15.18,4.624-15.116h5.135l-7.622,22.483h-4.274l-5.039-14.606-5.039,14.606h-4.272Z" fill="#fff"/>
      <path id="Path_639" data-name="Path 639" d="M399.28,205.138h4.529l10.461,13.745V205.138h4.846v22.323h-4.178l-10.81-14.191v14.191H399.28Z" fill="#fff"/>
      <path id="Path_640" data-name="Path 640" d="M225.3,240.951V240.9a10.171,10.171,0,0,1,20.332-.054v.054a10.171,10.171,0,0,1-20.332.055Zm15.932,0V240.9a5.811,5.811,0,0,0-5.793-6.012,5.722,5.722,0,0,0-5.739,5.958v.054a5.812,5.812,0,0,0,5.794,6.013A5.721,5.721,0,0,0,241.232,240.951Z" fill="#fff"/>
      <path id="Path_641" data-name="Path 641" d="M248.284,231.332H256.1c4.564,0,7.324,2.705,7.324,6.613V238c0,4.427-3.444,6.723-7.735,6.723h-3.2v5.738h-4.208Zm7.542,9.647c2.1,0,3.334-1.258,3.334-2.9v-.055c0-1.886-1.311-2.9-3.416-2.9h-3.252v5.849Z" fill="#fff"/>
      <path id="Path_642" data-name="Path 642" d="M265.447,231.332h7.816c4.564,0,7.324,2.705,7.324,6.613V238c0,4.427-3.443,6.723-7.734,6.723h-3.2v5.738h-4.208Zm7.542,9.647c2.1,0,3.334-1.258,3.334-2.9v-.055c0-1.886-1.311-2.9-3.416-2.9h-3.252v5.849Z" fill="#fff"/>
      <path id="Path_643" data-name="Path 643" d="M281.763,240.951V240.9a10.171,10.171,0,0,1,20.333-.054v.054a10.171,10.171,0,0,1-20.333.055Zm15.932,0V240.9a5.812,5.812,0,0,0-5.794-6.012,5.721,5.721,0,0,0-5.738,5.958v.054a5.812,5.812,0,0,0,5.793,6.013A5.722,5.722,0,0,0,297.7,240.951Z" fill="#fff"/>
      <path id="Path_644" data-name="Path 644" d="M304.747,231.332h8.745a7.62,7.62,0,0,1,5.574,1.94,6,6,0,0,1,1.641,4.373v.054a5.939,5.939,0,0,1-4.1,5.93l4.673,6.832h-4.919l-4.1-6.121h-3.307v6.121h-4.208Zm8.472,9.291c2.05,0,3.224-1.093,3.224-2.706v-.054c0-1.8-1.256-2.733-3.306-2.733h-4.182v5.493Z" fill="#fff"/>
      <path id="Path_645" data-name="Path 645" d="M327.867,235.212h-5.821v-3.88H337.9v3.88h-5.82v15.249h-4.209Z" fill="#fff"/>
      <path id="Path_646" data-name="Path 646" d="M339.729,242.263V231.332h4.208v10.821c0,3.116,1.558,4.728,4.126,4.728s4.127-1.557,4.127-4.591V231.332H356.4v10.794c0,5.794-3.252,8.636-8.389,8.636S339.729,247.893,339.729,242.263Z" fill="#fff"/>
      <path id="Path_647" data-name="Path 647" d="M359.6,231.332h3.88l8.963,11.778V231.332H376.6v19.129h-3.58L363.751,238.3v12.161H359.6Z" fill="#fff"/>
      <path id="Path_648" data-name="Path 648" d="M380.286,231.332h4.208v19.129h-4.208Z" fill="#fff"/>
      <path id="Path_649" data-name="Path 649" d="M392.638,235.212h-5.822v-3.88h15.851v3.88h-5.82v15.249h-4.209Z" fill="#fff"/>
      <path id="Path_650" data-name="Path 650" d="M410.185,242.919l-7.352-11.587h4.919l4.563,7.679,4.647-7.679h4.782l-7.351,11.505v7.624h-4.208Z" fill="#fff"/>
    </g>
    <g id="Group_1720" data-name="Group 1720">
      <rect id="Rectangle_463" data-name="Rectangle 463" width="137.048" height="77" transform="translate(79.774 190.969)" fill="#cf3339"/>
      <path id="Path_651" data-name="Path 651" d="M105.877,216.554c4.717.955,7.5,2.431,7.5,6.338,0,4.225-3.27,6.656-8.1,6.656a14.48,14.48,0,0,1-9.608-3.328l3.126-3.7a10.267,10.267,0,0,0,6.6,2.4c1.5,0,2.315-.52,2.315-1.389s-.694-1.273-3.5-1.881c-4.4-.926-7.582-2.141-7.582-6.425,0-3.79,2.98-6.511,7.871-6.511a12.809,12.809,0,0,1,8.335,2.692l-2.808,3.935a9.946,9.946,0,0,0-5.672-2c-1.36,0-2.055.551-2.055,1.274,0,.984.724,1.332,3.589,1.939" fill="#fff"/>
      <path id="Path_652" data-name="Path 652" d="M128,225.554h-.116l-5.151-7.872v11.576h-5.5V209h5.933L128,216.843,132.828,209h5.933v20.258h-5.585V217.625Z" fill="#fff"/>
      <path id="Path_653" data-name="Path 653" d="M152.169,215.513l-2.287,5.758h4.544Zm11.373,13.746h-6.02l-1.475-3.618h-7.814l-1.447,3.618h-5.9l8.624-20.4h5.412Z" fill="#fff"/>
      <path id="Path_654" data-name="Path 654" d="M165.93,209h5.615v15.338h9.81v4.92H165.93Z" fill="#fff"/>
      <path id="Path_655" data-name="Path 655" d="M184.33,209h5.614v15.338h9.811v4.92H184.33Z" fill="#fff"/>
      <path id="Path_656" data-name="Path 656" d="M108.269,232.557h4.82V250.13h-4.268l-7.507-9.64v9.64h-4.82V232.557h4.544l7.23,9.289Z" fill="#fff"/>
      <path id="Path_657" data-name="Path 657" d="M125.559,238.205l-1.984,5h3.942Zm9.866,11.925H130.2l-1.281-3.138h-6.778l-1.255,3.138h-5.122l7.481-17.7h4.695Z" fill="#fff"/>
      <path id="Path_658" data-name="Path 658" d="M144.664,250.13h-4.871V236.824h-5.272v-4.268h15.414v4.268h-5.272Z" fill="#fff"/>
      <rect id="Rectangle_464" data-name="Rectangle 464" width="4.895" height="17.573" transform="translate(153.427 232.557)" fill="#fff"/>
      <path id="Path_659" data-name="Path 659" d="M171.127,236.649a4.443,4.443,0,0,0-4.444,4.669,4.526,4.526,0,0,0,4.494,4.72,4.448,4.448,0,0,0,4.468-4.67,4.53,4.53,0,0,0-4.518-4.719m0,13.782a9.1,9.1,0,1,1,9.489-9.113,9.086,9.086,0,0,1-9.489,9.113" fill="#fff"/>
      <path id="Path_660" data-name="Path 660" d="M195.087,232.557h4.82V250.13h-4.268l-7.506-9.64v9.64h-4.82V232.557h4.544l7.23,9.289Z" fill="#fff"/>
      <path id="Path_661" data-name="Path 661" d="M204.5,250.229l-.036-.988c0-.13,0-.29,0-.469h-.015c-.039.147-.085.344-.129.5l-.271.927-.293-.005-.24-.961c-.025-.129-.063-.327-.092-.476H203.4c0,.155-.01.315-.018.469l-.068.987-.272,0,.132-1.677.423.006.233.825c.028.13.053.254.087.428h0c.039-.154.072-.295.106-.419l.258-.822.409.006.082,1.68Zm-1.51-1.7,0,.277-.455-.007-.023,1.4-.283-.005.024-1.4-.455-.008,0-.278Z" fill="#fff"/>
    </g>
  </g>
</svg>
