<?xml version="1.0" encoding="utf-8"?>
<!-- Generator: Adobe Illustrator 25.4.1, SVG Export Plug-In . SVG Version: 6.00 Build 0)  -->
<svg version="1.1" id="Layer_1" xmlns="http://www.w3.org/2000/svg" xmlns:xlink="http://www.w3.org/1999/xlink" x="0px" y="0px"
	 viewBox="0 0 219 49" style="enable-background:new 0 0 219 49;" xml:space="preserve">
<style type="text/css">
	.st0{fill:#FFFFFF;}
	.st1{fill:#F26222;}
	.st2{fill:#FFFFFF;stroke:#FFFFFF;stroke-miterlimit:10;}
	.st3{fill:#84D4F1;}
</style>
<g vector-effect="non-scaling-stroke">
	<g transform="matrix(1 0 0 1 -67.68 -5.5)">
		<path vector-effect="non-scaling-stroke" class="st0" d="M125.5,19.9h3.3v6h6.1v-6h3.3V35H135V29h-6.1V35h-3.3V19.9z"/>
	</g>
	<g transform="matrix(1 0 0 1 -32.82 -5.5)">
		<path vector-effect="non-scaling-stroke" class="st0" d="M105.1,27.5L105.1,27.5c0-4.4,3.4-7.9,8.1-7.9c4.7,0,8,3.5,8,7.8v0
			c0,4.3-3.4,7.8-8.1,7.8C108.5,35.3,105.1,31.8,105.1,27.5z M117.7,27.5L117.7,27.5c0-2.6-1.9-4.8-4.6-4.8c-2.7,0-4.5,2.1-4.5,4.7
			v0c0,2.6,1.9,4.8,4.6,4.8C115.9,32.2,117.7,30.1,117.7,27.5z"/>
	</g>
	<g transform="matrix(1 0 0 1 5.29 -5.5)">
		<path vector-effect="non-scaling-stroke" class="st0" d="M85.1,19.9h3.6l4,6.4l4-6.4h3.6V35h-3.3v-9.9l-4.3,6.5h-0.1l-4.2-6.4V35
			h-3.3V19.9z"/>
	</g>
	<g transform="matrix(1 0 0 1 39.19 -5.5)">
		<path vector-effect="non-scaling-stroke" class="st0" d="M68.6,19.9h11.4v3h-8.1v3.1h7.1v3h-7.1v3.2h8.2v3H68.6V19.9z"/>
	</g>
	<g transform="matrix(1 0 0 1 69.38 -5.5)">
		<path vector-effect="non-scaling-stroke" class="st0" d="M56.5,23h-4.6v-3.1h12.6V23h-4.6V35h-3.3V23z"/>
	</g>
	<g transform="matrix(1 0 0 1 101.65 -5.5)">
		<path vector-effect="non-scaling-stroke" class="st0" d="M32.7,27.5L32.7,27.5c0-4.4,3.4-7.9,8.1-7.9c4.7,0,8,3.5,8,7.8v0
			c0,4.3-3.4,7.8-8.1,7.8C36.1,35.3,32.7,31.8,32.7,27.5z M45.3,27.5L45.3,27.5c0-2.6-1.9-4.8-4.6-4.8c-2.7,0-4.5,2.1-4.5,4.7v0
			c0,2.6,1.9,4.8,4.6,4.8C43.5,32.2,45.3,30.1,45.3,27.5z"/>
	</g>
	<g transform="matrix(1 0 0 1 144.58 -5.43)">
		<path vector-effect="non-scaling-stroke" class="st0" d="M6.1,19.8h3.6l3.1,10.3l3.4-10.3h2.9l3.4,10.3l3.1-10.3h3.5l-5.2,15.3H21
			l-3.4-9.9l-3.4,9.9h-2.9L6.1,19.8z"/>
	</g>
	<g transform="matrix(1 0 0 1 187.97 -5.5)">
		<path vector-effect="non-scaling-stroke" class="st0" d="M-12.5,19.9h3.1l7.1,9.3v-9.3H1V35h-2.8l-7.3-9.6V35h-3.3V19.9z"/>
	</g>
	<g transform="matrix(1 0 0 1 -69.56 31.98)">
		<path vector-effect="non-scaling-stroke" class="st0" d="M126.1,7.3L126.1,7.3c0-3.7,2.9-6.7,6.8-6.7s6.8,3,6.8,6.6v0
			c0,3.6-2.9,6.6-6.8,6.6C129,13.9,126.1,11,126.1,7.3z M136.8,7.3L136.8,7.3c0-1.1-0.4-2.1-1.1-2.9c-0.7-0.8-1.7-1.2-2.8-1.2
			c-1,0-2.1,0.4-2.8,1.2c-0.7,0.8-1.1,1.8-1.1,2.8v0c0,1.1,0.4,2.1,1.1,2.8c0.7,0.8,1.7,1.2,2.8,1.2c1,0,2.1-0.4,2.8-1.2
			C136.5,9.4,136.9,8.4,136.8,7.3z"/>
	</g>
	<g transform="matrix(1 0 0 1 -39.77 31.98)">
		<path vector-effect="non-scaling-stroke" class="st0" d="M111.8,0.9h5.2c3.1,0,4.9,1.8,4.9,4.4v0c0,3-2.3,4.5-5.2,4.5h-2.1v3.9
			h-2.8V0.9z M116.9,7.3c1.4,0,2.2-0.8,2.2-1.9v0c0-1.3-0.9-1.9-2.3-1.9h-2.2v3.9H116.9z"/>
	</g>
	<g transform="matrix(1 0 0 1 -14.68 31.98)">
		<path vector-effect="non-scaling-stroke" class="st0" d="M98.3,0.9h5.2c3.1,0,4.9,1.8,4.9,4.4v0c0,3-2.3,4.5-5.2,4.5h-2.1v3.9
			h-2.8V0.9z M103.4,7.3c1.4,0,2.2-0.8,2.2-1.9v0c0-1.3-0.9-1.9-2.3-1.9h-2.2v3.9H103.4z"/>
	</g>
	<g transform="matrix(1 0 0 1 13.69 31.98)">
		<path vector-effect="non-scaling-stroke" class="st0" d="M81.3,7.3L81.3,7.3c0-3.7,2.9-6.7,6.8-6.7c4,0,6.8,3,6.8,6.6v0
			c0,3.6-2.9,6.6-6.8,6.6C84.1,13.9,81.3,11,81.3,7.3z M92,7.3L92,7.3c0-1.1-0.4-2.1-1.1-2.9c-0.7-0.8-1.7-1.2-2.8-1.2
			c-1,0-2.1,0.4-2.8,1.2c-0.7,0.8-1.1,1.8-1.1,2.8v0c0,1.1,0.4,2.1,1.1,2.8c0.7,0.8,1.7,1.2,2.8,1.2c1,0,2.1-0.4,2.8-1.2
			C91.7,9.4,92,8.4,92,7.3L92,7.3z"/>
	</g>
	<g transform="matrix(1 0 0 1 44.49 31.98)">
		<path vector-effect="non-scaling-stroke" class="st0" d="M66,0.9h5.9c1.6,0,2.9,0.5,3.7,1.3C76.3,3,76.7,4,76.7,5.1v0
			c0.1,1.8-1,3.4-2.8,4l3.1,4.6h-3.3L71,9.6h-2.2v4.1H66V0.9z M71.7,7.1c1.4,0,2.2-0.7,2.2-1.8v0c0-1.2-0.8-1.8-2.2-1.8h-2.8v3.7
			L71.7,7.1z"/>
	</g>
	<g transform="matrix(1 0 0 1 68.57 31.98)">
		<path vector-effect="non-scaling-stroke" class="st0" d="M57.2,3.5h-3.9V0.9h10.6v2.6H60v10.2h-2.8V3.5z"/>
	</g>
	<g transform="matrix(1 0 0 1 95.74 32.2)">
		<path vector-effect="non-scaling-stroke" class="st0" d="M38.3,8V0.6h2.8v7.3c0,2.1,1,3.2,2.8,3.2s2.8-1,2.8-3.1V0.6h2.8v7.2
			c0,3.9-2.2,5.8-5.6,5.8C40.5,13.7,38.3,11.8,38.3,8z"/>
	</g>
	<g transform="matrix(1 0 0 1 125.01 31.98)">
		<path vector-effect="non-scaling-stroke" class="st0" d="M22.5,0.9h2.6l6,7.9V0.9h2.8v12.8h-2.4l-6.2-8.2v8.2h-2.8V0.9z"/>
	</g>
	<g transform="matrix(1 0 0 1 145.21 31.98)">
		<path vector-effect="non-scaling-stroke" class="st0" d="M15.9,0.9h2.8v12.8h-2.8V0.9z"/>
	</g>
	<g transform="matrix(1 0 0 1 163.31 31.98)">
		<path vector-effect="non-scaling-stroke" class="st0" d="M6.1,3.5H2.2V0.9h10.6v2.6H9v10.2H6.1V3.5z"/>
	</g>
	<g transform="matrix(1 0 0 1 190.42 31.98)">
		<path vector-effect="non-scaling-stroke" class="st0" d="M-8.5,8.6l-4.9-7.8h3.3L-7,6l3.1-5.2h3.2l-4.9,7.7v5.1h-2.8L-8.5,8.6z"/>
	</g>
	<g transform="matrix(1 0 0 1 -189.32 -15.73)">
		<path vector-effect="non-scaling-stroke" class="st1" d="M194.8,33c0.2,0.7,0.6,1.4,1.2,1.9c0.6,0.5,1.3,0.8,2.1,0.8
			c0.7,0,1.3-0.3,1.7-0.8c0.4-0.5,0.6-1.2,0.4-1.9c-0.2-0.7-0.6-1.4-1.2-1.8c-0.6-0.5-1.3-0.8-2.1-0.8c-0.7,0-1.3,0.3-1.7,0.8
			C194.7,31.6,194.6,32.3,194.8,33L194.8,33z"/>
	</g>
	<g transform="matrix(1 0 0 1 -137 21.34)">
		<path vector-effect="non-scaling-stroke" class="st0" d="M173.7-0.3c7.8,0.6,8.1,9.2,7,14.7c-0.5-2.3-0.6-4.3-1.6-6.9
			c-0.5-1.2-3-5.1-3.6-2.8c-0.4,1.5-0.1,3.2,0.8,4.5c1.2,1.7,1.8,4.1,2.1,5.9c0.6,3.8,0.5,7.6-0.3,11.4c-0.6-2.8-1.4-5.7-2.3-8.4
			c-0.7-2-2.4-6.8-5.4-5.1c-2.4,1.3-3.7,4.7-4.8,7.1c-0.8,1.8-1.5,3.7-2.1,5.6c0.3-2.6,0.6-5.2,1.1-7.7c0.3-1.6,0.9-3.2,1.6-4.7
			c0.7-1.5,1.8-3,2.1-4.6c0.1-0.4,0.3-4.2-0.4-4c-0.4,0.1-1.6,1.8-2.4,2.4c-2.3,1.8-5.4,2.4-8.2,1.6c0,0,3.5-0.9,4.4-1.4
			c2.2-1.1,2.6-3,3.6-4.5C168.1-1.2,171.5-0.5,173.7-0.3z"/>
	</g>
	<g transform="matrix(1 0 0 1 -112.32 23.17)">
		<path vector-effect="non-scaling-stroke" class="st2" d="M156,12.6c0.1-0.3,0.1-0.6,0.1-0.8c-0.1-0.1-0.2-0.2-0.3-0.3
			C155.9,11.8,156,12.2,156,12.6z"/>
	</g>
	<g transform="matrix(1 0 0 1 -111.77 25.78)">
		<path vector-effect="non-scaling-stroke" class="st1" d="M157,10.7l-0.3,0c0,0,0,0.1,0,0.1c0,0.1-0.1,0.2-0.2,0.3
			c-0.1,0.1-0.3,0.1-0.4,0.1l-0.8,0c-0.1,0-0.1,0-0.2,0c-0.1,0-0.2-0.1-0.3-0.2c-0.1-0.1-0.1-0.2-0.1-0.3c0,0,0-0.1,0-0.1
			c0-0.1,0.1-0.2,0.2-0.3c0.1-0.1,0.3-0.1,0.4-0.1l0.8,0c0.1,0,0.1,0,0.2,0c0.1,0,0.2,0.1,0.3,0.2c0.1,0.1,0.1,0.2,0.1,0.3L157,10.7
			l0.3,0c0-0.2-0.1-0.5-0.2-0.7c-0.2-0.2-0.4-0.3-0.6-0.4c-0.1,0-0.2,0-0.3,0l-0.8,0c-0.3,0-0.5,0.1-0.7,0.2
			c-0.2,0.1-0.4,0.3-0.4,0.6c0,0.1,0,0.1,0,0.2c0,0.2,0.1,0.5,0.2,0.7c0.2,0.2,0.4,0.3,0.6,0.4c0.1,0,0.2,0,0.3,0l0.8,0
			c0.3,0,0.5-0.1,0.7-0.2c0.2-0.1,0.4-0.3,0.4-0.6c0-0.1,0-0.1,0-0.2L157,10.7z"/>
	</g>
	<g transform="matrix(1 0 0 1 -111.5 28.42)">
		<path vector-effect="non-scaling-stroke" class="st1" d="M159.4,10l0-1c0-0.5-0.4-0.9-0.9-0.9l-6.2-0.2c-0.2,0-0.4,0.1-0.6,0.2
			C153.4,10.5,156.7,11,159.4,10z"/>
	</g>
	<g transform="matrix(1 0 0 1 -111.94 31.53)">
		<path vector-effect="non-scaling-stroke" class="st1" d="M152.1,5c-0.2,0.2-0.3,0.4-0.3,0.6l-0.1,3.2c0,0.5,0.4,0.9,0.9,0.9
			l6.2,0.2c0.2,0,0.5-0.1,0.6-0.2c0.2-0.2,0.3-0.4,0.3-0.6l0.1-2.3C157.2,7.8,153.8,7.4,152.1,5z"/>
	</g>
	<g transform="matrix(1 0 0 1 -183.65 19.71)">
		<path vector-effect="non-scaling-stroke" class="st1" d="M187.7,1.6c-3.8,1.9-3.5,9.8-0.4,13.1c-0.9-3-0.6-6.1,1.5-8.2
			c0.1-0.1,1.3,2.1,0.9,5.3c-0.2,1.7-4.8,7.9-2.5,14.9c0.4-4,2.8-11.5,5.8-11.5c3.1,0.1,5.1,9.6,5.9,12c0.4-2.9,0.5-5.7,0.3-8.6
			c-0.4-8.6-3.7-13.2-3.7-13.2s2.6,6.2,8.5,4.9c-4.6-0.9-4.2-3.5-5.6-6.2C196.4,0.3,191.2-0.1,187.7,1.6z"/>
	</g>
	<g transform="matrix(1 0 0 1 -131.97 -14.45)">
		<path vector-effect="non-scaling-stroke" class="st0" d="M167.1,29.6c-0.8,0-1.5,0.3-2.1,0.9c-0.6,0.5-1,1.1-1.2,1.9
			c-0.2,0.6,0,1.3,0.4,1.8c0.4,0.5,1.1,0.8,1.8,0.7c0.8,0,1.5-0.3,2-0.8c0.6-0.5,1-1.1,1.2-1.9c0.2-0.6,0-1.3-0.4-1.8
			C168.4,29.9,167.8,29.6,167.1,29.6L167.1,29.6z"/>
	</g>
	<g transform="matrix(1 0 0 1 -144.54 -39.19)">
		<path vector-effect="non-scaling-stroke" class="st3" d="M181.4,45.6c0,2.9-3.6,5.3-8.1,5.3c-4.5,0-8.1-2.4-8.1-5.3
			c0-2.9,3.6-5.3,8.1-5.3C177.8,40.4,181.4,42.7,181.4,45.6z"/>
	</g>
	<g transform="matrix(1 0 0 1 -145.24 -28.65)">
		<polygon vector-effect="non-scaling-stroke" class="st3" points="170.4,37.5 177.1,42.7 176,37.1 		"/>
	</g>
	<g transform="matrix(1 0 0 1 -169.63 -35.79)">
		<path vector-effect="non-scaling-stroke" class="st3" d="M195,43.8c0,2.9-3.6,5.3-8.1,5.3c-4.5,0-8.1-2.4-8.1-5.3
			c0-2.9,3.6-5.3,8.1-5.3C191.3,38.5,195,40.9,195,43.8z"/>
	</g>
	<g transform="matrix(1 0 0 1 -174.32 -23.59)">
		<polygon vector-effect="non-scaling-stroke" class="st3" points="187.9,34.7 186.1,39.9 192.7,34.5 		"/>
	</g>
</g>
</svg>
