<svg xmlns="http://www.w3.org/2000/svg" width="150" height="150" viewBox="0 0 150 150">
  <g id="logo-white" transform="translate(-2066.032 -6677.032)">
    <circle id="Ellipse_230" data-name="Ellipse 230" cx="75" cy="75" r="75" transform="translate(2066.032 6677.032)" fill="#c2dfff"/>
    <g id="Group_1722" data-name="Group 1722" transform="translate(2090.006 6716.014)">
      <path id="Path_498" data-name="Path 498" d="M371.939,635.767a5.162,5.162,0,0,0,5.162,5.162h11.482a2.269,2.269,0,0,0,1.6-3.874l-14.375-14.374a2.269,2.269,0,0,0-3.874,1.6Z" transform="translate(-288.247 -621.385)" fill="#15a866"/>
      <g id="Group_774" data-name="Group 774" transform="translate(0 0)">
        <path id="Path_499" data-name="Path 499" d="M437.8,643.422H425.037a6.82,6.82,0,0,1-6.814-6.814V623.844a3.582,3.582,0,0,1,.664-2.1H341.423a4.76,4.76,0,0,0-4.761,4.762v53.055a4.76,4.76,0,0,0,4.761,4.761h10.4a11.893,11.893,0,0,0,23.71,0h26.324a11.9,11.9,0,0,0,23.705,0h9.573a4.76,4.76,0,0,0,4.761-4.761V642.757A3.576,3.576,0,0,1,437.8,643.422Zm-74.122,47.762a7.822,7.822,0,1,1,7.822-7.822A7.831,7.831,0,0,1,363.679,691.184Zm50.032-.057a7.822,7.822,0,1,1,7.822-7.822A7.831,7.831,0,0,1,413.711,691.127Z" transform="translate(-336.662 -621.747)" fill="#022e5f"/>
      </g>
      <g id="Group_775" data-name="Group 775" transform="translate(1.208 26.609)">
        <path id="Path_500" data-name="Path 500" d="M337.171,650.566l.028-3.432h15.509a.924.924,0,0,0,.652-.181.966.966,0,0,0,.187-.676l.021-2.446a1.219,1.219,0,0,0-.033-.285c-.064-.313-.32-.47-.771-.47h-6.942a2.59,2.59,0,0,1-1.642-.453,2.124,2.124,0,0,1-.743-1.288,4.3,4.3,0,0,1-.076-.754l.035-4.55a3.537,3.537,0,0,1,.671-2.313,3.025,3.025,0,0,1,2.368-.754h10.949l-.019,3.355h-9.336a.687.687,0,0,0-.56.18,1.111,1.111,0,0,0-.154.653l-.021,2.313a1.644,1.644,0,0,0,0,.183.851.851,0,0,0,.019.154c.052.261.27.392.652.392h7.046a2.6,2.6,0,0,1,1.668.467,2.175,2.175,0,0,1,.747,1.3,3.706,3.706,0,0,1,.069.728l-.033,4.811a3.551,3.551,0,0,1-.671,2.313,3,3,0,0,1-2.344.754Z" transform="translate(-337.171 -632.963)" fill="#fff"/>
        <path id="Path_501" data-name="Path 501" d="M349.061,650.115a2.964,2.964,0,0,1-1.651-.377,1.777,1.777,0,0,1-.721-1.184,5.456,5.456,0,0,1-.078-1.013l.114-14.249h3.639l-.033,3.665H353.5l-.014,2.861h-3.172l-.057,6.733a2.012,2.012,0,0,0,.016.339c.05.242.263.363.645.363h2.391l-.014,2.861Z" transform="translate(-324.217 -632.511)" fill="#fff"/>
        <path id="Path_502" data-name="Path 502" d="M352.566,647.995a2.949,2.949,0,0,1-1.649-.377,1.78,1.78,0,0,1-.724-1.184,5.276,5.276,0,0,1-.076-1.013l.057-8.009a3.006,3.006,0,0,1,.553-1.95,2.467,2.467,0,0,1,1.938-.624h8.947a3.009,3.009,0,0,1,1.689.377,1.8,1.8,0,0,1,.709,1.184,5.482,5.482,0,0,1,.076,1.013l-.057,8.009a3.007,3.007,0,0,1-.553,1.95,2.511,2.511,0,0,1-1.967.624Zm7.86-9.284a2.829,2.829,0,0,0-.012-.31c-.057-.278-.32-.418-.788-.418h-5.148a.777.777,0,0,0-.555.145.813.813,0,0,0-.128.584l-.026,5.357a1.52,1.52,0,0,0,0,.183.89.89,0,0,0,.019.156c.05.242.263.363.645.363h5.148a1,1,0,0,0,.645-.156.7.7,0,0,0,.175-.546Z" transform="translate(-319.402 -630.391)" fill="#fff"/>
        <path id="Path_503" data-name="Path 503" d="M370.236,647.995l-2.667-9.127-3.132,9.127h-4.524l-3.592-13.158h4l2.256,9.414,3.023-9.414h4.289l2.617,9.388,2.662-9.388h3.848l-4.183,13.158Z" transform="translate(-310.888 -630.391)" fill="#fff"/>
      </g>
      <path id="Path_504" data-name="Path 504" d="M349.23,643.877l.152-12.41h3.77l-.114,9.093h5.352q1.331,0,1.357-1.632l.088-7.087a2.318,2.318,0,0,0-.04-.576,1.188,1.188,0,0,0-1.291-1.056h-9.122l.036-3.343h9.824q3.719,0,4.322,3.015a6.362,6.362,0,0,1,.114,1.334l-.119,8.315a4.456,4.456,0,0,1-1.134,3.241,4.594,4.594,0,0,1-3.371,1.105Z" transform="translate(-319.413 -614.72)" fill="#fff"/>
      <path id="Path_505" data-name="Path 505" d="M370.565,643.877h-3.82l.152-13.667h-4.121l.035-3.343H374.9l-.036,3.343h-4.145Z" transform="translate(-300.822 -614.72)" fill="#fff"/>
      <path id="Path_506" data-name="Path 506" d="M370.411,633.208a4.533,4.533,0,0,0-.069-.529,2.15,2.15,0,0,0-.835-1.407,2.516,2.516,0,0,0-1-.377v-1.677a5.257,5.257,0,1,0-10.514,0v1.715a2.073,2.073,0,0,0-1.148.617,3.432,3.432,0,0,0-.657,2.235l-.119,11.082a5.116,5.116,0,0,0,.076,1.132,2.092,2.092,0,0,0,.842,1.381,3.412,3.412,0,0,0,1.936.453h8.47a2.915,2.915,0,0,0,2.254-.728,3.4,3.4,0,0,0,.669-2.237l.119-11.082C370.43,633.585,370.42,633.391,370.411,633.208Zm-7.158-7.936a3.948,3.948,0,0,1,3.943,3.946v1.6H359.31v-1.6A3.948,3.948,0,0,1,363.253,625.272Z" transform="translate(-310.028 -618.713)" fill="#fff"/>
      <path id="Path_507" data-name="Path 507" d="M360.953,632.132a1.59,1.59,0,0,0,.984-1.431,1.793,1.793,0,0,0-3.568,0,1.592,1.592,0,0,0,.987,1.431l-1.027,5.16a.667.667,0,0,0,.7.714h2.249a.666.666,0,0,0,.7-.714Z" transform="translate(-306.933 -611.668)" fill="#022e5f"/>
      <g id="Group_776" data-name="Group 776" transform="translate(15.501 12.439)">
        <path id="Path_508" data-name="Path 508" d="M354.5,628.315H343.723a.529.529,0,0,0,0,1.058H354.5a.529.529,0,1,0,0-1.058Z" transform="translate(-343.196 -625.172)" fill="#fff"/>
        <path id="Path_509" data-name="Path 509" d="M354.5,629.546H343.723a.529.529,0,0,0,0,1.058H354.5a.529.529,0,1,0,0-1.058Z" transform="translate(-343.196 -623.482)" fill="#fff"/>
        <path id="Path_510" data-name="Path 510" d="M350.01,630.776h-6.287a.529.529,0,0,0,0,1.058h6.287a.529.529,0,1,0,0-1.058Z" transform="translate(-343.196 -621.794)" fill="#fff"/>
        <path id="Path_511" data-name="Path 511" d="M346.564,628.048h4.04a.529.529,0,0,0,0-1.058h-4.04a.529.529,0,1,0,0,1.058Z" transform="translate(-339.3 -626.99)" fill="#fff"/>
      </g>
    </g>
  </g>
</svg>
